<svg xmlns="http://www.w3.org/2000/svg" viewBox="0 0 64 64" fill="none">
  <rect width="64" height="64" rx="18" fill="url(#bg)"/>
  <rect x="3" y="3" width="58" height="58" rx="15" stroke="rgba(255,255,255,0.32)"/>
  <path d="M42.5 31.5c0 7.2-4.7 12.8-11.6 12.8-7.6 0-12.7-5.8-12.7-13.2 0-7.7 5.4-13.3 13.2-13.3 4 0 7.5 1.4 9.8 4l-3.8 3.5c-1.4-1.6-3.4-2.5-5.9-2.5-4.6 0-7.8 3.4-7.8 8.2 0 4.7 3 8.3 7.6 8.3 3.8 0 6.1-2 6.8-5.3h-6.5v-4.5h11.1c0 .5.1 1.2.1 2z" fill="#F8F3EA"/>
  <circle cx="47.5" cy="18.5" r="4.5" fill="#E2A66A"/>
  <defs>
    <linearGradient id="bg" x1="8" y1="8" x2="56" y2="56" gradientUnits="userSpaceOnUse">
      <stop stop-color="#B87333"/>
      <stop offset="1" stop-color="#1D4F91"/>
    </linearGradient>
  </defs>
</svg>
